<svg xmlns="http://www.w3.org/2000/svg" xmlns:xlink="http://www.w3.org/1999/xlink" width="49" zoomAndPan="magnify" viewBox="0 0 36.75 36.75" height="49" preserveAspectRatio="xMidYMid meet" version="1.0"><defs><clipPath id="id1"><path d="M 5.246094 0.929688 L 36.179688 0.929688 L 36.179688 36.179688 L 5.246094 36.179688 Z M 5.246094 0.929688 " clip-rule="nonzero"/></clipPath><clipPath id="id2"><path d="M 36.183594 18.558594 C 36.183594 28.292969 28.292969 36.183594 18.558594 36.183594 C 8.824219 36.183594 0.933594 28.292969 0.933594 18.558594 C 0.933594 8.824219 8.824219 0.933594 18.558594 0.933594 C 28.292969 0.933594 36.183594 8.824219 36.183594 18.558594 Z M 36.183594 18.558594 " clip-rule="nonzero"/></clipPath><clipPath id="id3"><path d="M 6.828125 0.929688 L 36.179688 0.929688 L 36.179688 36.179688 L 6.828125 36.179688 Z M 6.828125 0.929688 " clip-rule="nonzero"/></clipPath><clipPath id="id4"><path d="M 36.183594 18.558594 C 36.183594 28.292969 28.292969 36.183594 18.558594 36.183594 C 8.824219 36.183594 0.933594 28.292969 0.933594 18.558594 C 0.933594 8.824219 8.824219 0.933594 18.558594 0.933594 C 28.292969 0.933594 36.183594 8.824219 36.183594 18.558594 Z M 36.183594 18.558594 " clip-rule="nonzero"/></clipPath><clipPath id="id5"><path d="M 8.410156 2.941406 L 36.179688 2.941406 L 36.179688 36.179688 L 8.410156 36.179688 Z M 8.410156 2.941406 " clip-rule="nonzero"/></clipPath><clipPath id="id6"><path d="M 36.183594 18.558594 C 36.183594 28.292969 28.292969 36.183594 18.558594 36.183594 C 8.824219 36.183594 0.933594 28.292969 0.933594 18.558594 C 0.933594 8.824219 8.824219 0.933594 18.558594 0.933594 C 28.292969 0.933594 36.183594 8.824219 36.183594 18.558594 Z M 36.183594 18.558594 " clip-rule="nonzero"/></clipPath><clipPath id="id7"><path d="M 10 5.179688 L 36.179688 5.179688 L 36.179688 36.179688 L 10 36.179688 Z M 10 5.179688 " clip-rule="nonzero"/></clipPath><clipPath id="id8"><path d="M 36.183594 18.558594 C 36.183594 28.292969 28.292969 36.183594 18.558594 36.183594 C 8.824219 36.183594 0.933594 28.292969 0.933594 18.558594 C 0.933594 8.824219 8.824219 0.933594 18.558594 0.933594 C 28.292969 0.933594 36.183594 8.824219 36.183594 18.558594 Z M 36.183594 18.558594 " clip-rule="nonzero"/></clipPath><clipPath id="id9"><path d="M 11.574219 7.421875 L 36.179688 7.421875 L 36.179688 35 L 11.574219 35 Z M 11.574219 7.421875 " clip-rule="nonzero"/></clipPath><clipPath id="id10"><path d="M 36.183594 18.558594 C 36.183594 28.292969 28.292969 36.183594 18.558594 36.183594 C 8.824219 36.183594 0.933594 28.292969 0.933594 18.558594 C 0.933594 8.824219 8.824219 0.933594 18.558594 0.933594 C 28.292969 0.933594 36.183594 8.824219 36.183594 18.558594 Z M 36.183594 18.558594 " clip-rule="nonzero"/></clipPath><clipPath id="id11"><path d="M 13.089844 9.597656 L 36.179688 9.597656 L 36.179688 33.453125 L 13.089844 33.453125 Z M 13.089844 9.597656 " clip-rule="nonzero"/></clipPath><clipPath id="id12"><path d="M 36.183594 18.558594 C 36.183594 28.292969 28.292969 36.183594 18.558594 36.183594 C 8.824219 36.183594 0.933594 28.292969 0.933594 18.558594 C 0.933594 8.824219 8.824219 0.933594 18.558594 0.933594 C 28.292969 0.933594 36.183594 8.824219 36.183594 18.558594 Z M 36.183594 18.558594 " clip-rule="nonzero"/></clipPath><clipPath id="id13"><path d="M 14.671875 11.835938 L 34.703125 11.835938 L 34.703125 31.871094 L 14.671875 31.871094 Z M 14.671875 11.835938 " clip-rule="nonzero"/></clipPath><clipPath id="id14"><path d="M 36.183594 18.558594 C 36.183594 28.292969 28.292969 36.183594 18.558594 36.183594 C 8.824219 36.183594 0.933594 28.292969 0.933594 18.558594 C 0.933594 8.824219 8.824219 0.933594 18.558594 0.933594 C 28.292969 0.933594 36.183594 8.824219 36.183594 18.558594 Z M 36.183594 18.558594 " clip-rule="nonzero"/></clipPath><clipPath id="id15"><path d="M 16.253906 14.078125 L 32.464844 14.078125 L 32.464844 30.289062 L 16.253906 30.289062 Z M 16.253906 14.078125 " clip-rule="nonzero"/></clipPath><clipPath id="id16"><path d="M 36.183594 18.558594 C 36.183594 28.292969 28.292969 36.183594 18.558594 36.183594 C 8.824219 36.183594 0.933594 28.292969 0.933594 18.558594 C 0.933594 8.824219 8.824219 0.933594 18.558594 0.933594 C 28.292969 0.933594 36.183594 8.824219 36.183594 18.558594 Z M 36.183594 18.558594 " clip-rule="nonzero"/></clipPath><clipPath id="id17"><path d="M 17.835938 16.316406 L 30.289062 16.316406 L 30.289062 28.707031 L 17.835938 28.707031 Z M 17.835938 16.316406 " clip-rule="nonzero"/></clipPath><clipPath id="id18"><path d="M 36.183594 18.558594 C 36.183594 28.292969 28.292969 36.183594 18.558594 36.183594 C 8.824219 36.183594 0.933594 28.292969 0.933594 18.558594 C 0.933594 8.824219 8.824219 0.933594 18.558594 0.933594 C 28.292969 0.933594 36.183594 8.824219 36.183594 18.558594 Z M 36.183594 18.558594 " clip-rule="nonzero"/></clipPath><clipPath id="id19"><path d="M 19.414062 18.558594 L 28.046875 18.558594 L 28.046875 27.125 L 19.414062 27.125 Z M 19.414062 18.558594 " clip-rule="nonzero"/></clipPath><clipPath id="id20"><path d="M 36.183594 18.558594 C 36.183594 28.292969 28.292969 36.183594 18.558594 36.183594 C 8.824219 36.183594 0.933594 28.292969 0.933594 18.558594 C 0.933594 8.824219 8.824219 0.933594 18.558594 0.933594 C 28.292969 0.933594 36.183594 8.824219 36.183594 18.558594 Z M 36.183594 18.558594 " clip-rule="nonzero"/></clipPath><clipPath id="id21"><path d="M 21 20.734375 L 25.808594 20.734375 L 25.808594 25.542969 L 21 25.542969 Z M 21 20.734375 " clip-rule="nonzero"/></clipPath><clipPath id="id22"><path d="M 36.183594 18.558594 C 36.183594 28.292969 28.292969 36.183594 18.558594 36.183594 C 8.824219 36.183594 0.933594 28.292969 0.933594 18.558594 C 0.933594 8.824219 8.824219 0.933594 18.558594 0.933594 C 28.292969 0.933594 36.183594 8.824219 36.183594 18.558594 Z M 36.183594 18.558594 " clip-rule="nonzero"/></clipPath><clipPath id="id23"><path d="M 0.929688 0.929688 L 33.1875 0.929688 L 33.1875 36.179688 L 0.929688 36.179688 Z M 0.929688 0.929688 " clip-rule="nonzero"/></clipPath><clipPath id="id24"><path d="M 36.183594 18.558594 C 36.183594 28.292969 28.292969 36.183594 18.558594 36.183594 C 8.824219 36.183594 0.933594 28.292969 0.933594 18.558594 C 0.933594 8.824219 8.824219 0.933594 18.558594 0.933594 C 28.292969 0.933594 36.183594 8.824219 36.183594 18.558594 Z M 36.183594 18.558594 " clip-rule="nonzero"/></clipPath><clipPath id="id25"><path d="M 0.929688 0.929688 L 31.605469 0.929688 L 31.605469 36.179688 L 0.929688 36.179688 Z M 0.929688 0.929688 " clip-rule="nonzero"/></clipPath><clipPath id="id26"><path d="M 36.183594 18.558594 C 36.183594 28.292969 28.292969 36.183594 18.558594 36.183594 C 8.824219 36.183594 0.933594 28.292969 0.933594 18.558594 C 0.933594 8.824219 8.824219 0.933594 18.558594 0.933594 C 28.292969 0.933594 36.183594 8.824219 36.183594 18.558594 Z M 36.183594 18.558594 " clip-rule="nonzero"/></clipPath><clipPath id="id27"><path d="M 0.929688 0.929688 L 30 0.929688 L 30 36.089844 L 0.929688 36.089844 Z M 0.929688 0.929688 " clip-rule="nonzero"/></clipPath><clipPath id="id28"><path d="M 36.183594 18.558594 C 36.183594 28.292969 28.292969 36.183594 18.558594 36.183594 C 8.824219 36.183594 0.933594 28.292969 0.933594 18.558594 C 0.933594 8.824219 8.824219 0.933594 18.558594 0.933594 C 28.292969 0.933594 36.183594 8.824219 36.183594 18.558594 Z M 36.183594 18.558594 " clip-rule="nonzero"/></clipPath><clipPath id="id29"><path d="M 0.929688 2.347656 L 28.445312 2.347656 L 28.445312 33.847656 L 0.929688 33.847656 Z M 0.929688 2.347656 " clip-rule="nonzero"/></clipPath><clipPath id="id30"><path d="M 36.183594 18.558594 C 36.183594 28.292969 28.292969 36.183594 18.558594 36.183594 C 8.824219 36.183594 0.933594 28.292969 0.933594 18.558594 C 0.933594 8.824219 8.824219 0.933594 18.558594 0.933594 C 28.292969 0.933594 36.183594 8.824219 36.183594 18.558594 Z M 36.183594 18.558594 " clip-rule="nonzero"/></clipPath><clipPath id="id31"><path d="M 0.929688 3.929688 L 26.863281 3.929688 L 26.863281 31.605469 L 0.929688 31.605469 Z M 0.929688 3.929688 " clip-rule="nonzero"/></clipPath><clipPath id="id32"><path d="M 36.183594 18.558594 C 36.183594 28.292969 28.292969 36.183594 18.558594 36.183594 C 8.824219 36.183594 0.933594 28.292969 0.933594 18.558594 C 0.933594 8.824219 8.824219 0.933594 18.558594 0.933594 C 28.292969 0.933594 36.183594 8.824219 36.183594 18.558594 Z M 36.183594 18.558594 " clip-rule="nonzero"/></clipPath><clipPath id="id33"><path d="M 1.425781 5.511719 L 25.28125 5.511719 L 25.28125 29.367188 L 1.425781 29.367188 Z M 1.425781 5.511719 " clip-rule="nonzero"/></clipPath><clipPath id="id34"><path d="M 36.183594 18.558594 C 36.183594 28.292969 28.292969 36.183594 18.558594 36.183594 C 8.824219 36.183594 0.933594 28.292969 0.933594 18.558594 C 0.933594 8.824219 8.824219 0.933594 18.558594 0.933594 C 28.292969 0.933594 36.183594 8.824219 36.183594 18.558594 Z M 36.183594 18.558594 " clip-rule="nonzero"/></clipPath><clipPath id="id35"><path d="M 3.664062 7.09375 L 23.699219 7.09375 L 23.699219 27.125 L 3.664062 27.125 Z M 3.664062 7.09375 " clip-rule="nonzero"/></clipPath><clipPath id="id36"><path d="M 36.183594 18.558594 C 36.183594 28.292969 28.292969 36.183594 18.558594 36.183594 C 8.824219 36.183594 0.933594 28.292969 0.933594 18.558594 C 0.933594 8.824219 8.824219 0.933594 18.558594 0.933594 C 28.292969 0.933594 36.183594 8.824219 36.183594 18.558594 Z M 36.183594 18.558594 " clip-rule="nonzero"/></clipPath><clipPath id="id37"><path d="M 5.90625 8.675781 L 22.117188 8.675781 L 22.117188 24.886719 L 5.90625 24.886719 Z M 5.90625 8.675781 " clip-rule="nonzero"/></clipPath><clipPath id="id38"><path d="M 36.183594 18.558594 C 36.183594 28.292969 28.292969 36.183594 18.558594 36.183594 C 8.824219 36.183594 0.933594 28.292969 0.933594 18.558594 C 0.933594 8.824219 8.824219 0.933594 18.558594 0.933594 C 28.292969 0.933594 36.183594 8.824219 36.183594 18.558594 Z M 36.183594 18.558594 " clip-rule="nonzero"/></clipPath><clipPath id="id39"><path d="M 8.148438 10.253906 L 20.535156 10.253906 L 20.535156 22.644531 L 8.148438 22.644531 Z M 8.148438 10.253906 " clip-rule="nonzero"/></clipPath><clipPath id="id40"><path d="M 36.183594 18.558594 C 36.183594 28.292969 28.292969 36.183594 18.558594 36.183594 C 8.824219 36.183594 0.933594 28.292969 0.933594 18.558594 C 0.933594 8.824219 8.824219 0.933594 18.558594 0.933594 C 28.292969 0.933594 36.183594 8.824219 36.183594 18.558594 Z M 36.183594 18.558594 " clip-rule="nonzero"/></clipPath><clipPath id="id41"><path d="M 10.386719 11.835938 L 18.953125 11.835938 L 18.953125 20.46875 L 10.386719 20.46875 Z M 10.386719 11.835938 " clip-rule="nonzero"/></clipPath><clipPath id="id42"><path d="M 36.183594 18.558594 C 36.183594 28.292969 28.292969 36.183594 18.558594 36.183594 C 8.824219 36.183594 0.933594 28.292969 0.933594 18.558594 C 0.933594 8.824219 8.824219 0.933594 18.558594 0.933594 C 28.292969 0.933594 36.183594 8.824219 36.183594 18.558594 Z M 36.183594 18.558594 " clip-rule="nonzero"/></clipPath><clipPath id="id43"><path d="M 12.5625 13.417969 L 17.4375 13.417969 L 17.4375 18.230469 L 12.5625 18.230469 Z M 12.5625 13.417969 " clip-rule="nonzero"/></clipPath><clipPath id="id44"><path d="M 36.183594 18.558594 C 36.183594 28.292969 28.292969 36.183594 18.558594 36.183594 C 8.824219 36.183594 0.933594 28.292969 0.933594 18.558594 C 0.933594 8.824219 8.824219 0.933594 18.558594 0.933594 C 28.292969 0.933594 36.183594 8.824219 36.183594 18.558594 Z M 36.183594 18.558594 " clip-rule="nonzero"/></clipPath></defs><g clip-path="url(#id1)"><g clip-path="url(#id2)"><path fill="rgb(18.818665%, 33.729553%, 82.348633%)" d="M 40.722656 41.304688 L 39.945312 40.523438 C 49.289062 31.179688 49.289062 15.972656 39.945312 6.628906 C 30.601562 -2.714844 15.394531 -2.714844 6.050781 6.628906 L 5.269531 5.851562 C 10.011719 1.109375 16.304688 -1.5 22.996094 -1.5 C 29.691406 -1.5 35.984375 1.109375 40.722656 5.851562 C 45.464844 10.589844 48.074219 16.882812 48.074219 23.578125 C 48.074219 30.269531 45.464844 36.5625 40.722656 41.304688 " fill-opacity="1" fill-rule="nonzero"/></g></g><g clip-path="url(#id3)"><g clip-path="url(#id4)"><path fill="rgb(18.818665%, 33.729553%, 82.348633%)" d="M 39.148438 39.726562 L 38.367188 38.945312 C 42.476562 34.835938 44.742188 29.378906 44.742188 23.578125 C 44.742188 17.773438 42.476562 12.316406 38.367188 8.207031 C 29.894531 -0.269531 16.101562 -0.269531 7.628906 8.207031 L 6.847656 7.425781 C 11.164062 3.109375 16.898438 0.730469 22.996094 0.730469 C 29.09375 0.730469 34.832031 3.109375 39.148438 7.425781 C 43.464844 11.742188 45.84375 17.480469 45.84375 23.578125 C 45.84375 29.671875 43.464844 35.410156 39.148438 39.726562 " fill-opacity="1" fill-rule="nonzero"/></g></g><g clip-path="url(#id5)"><g clip-path="url(#id6)"><path fill="rgb(18.818665%, 33.729553%, 82.348633%)" d="M 37.574219 38.152344 L 36.792969 37.371094 C 44.398438 29.765625 44.398438 17.386719 36.792969 9.78125 C 29.1875 2.175781 16.808594 2.175781 9.203125 9.78125 L 8.421875 9 C 12.320312 5.105469 17.496094 2.960938 22.996094 2.960938 C 28.5 2.960938 33.675781 5.105469 37.574219 9 C 41.46875 12.898438 43.613281 18.074219 43.613281 23.578125 C 43.613281 29.078125 41.46875 34.253906 37.574219 38.152344 " fill-opacity="1" fill-rule="nonzero"/></g></g><g clip-path="url(#id7)"><g clip-path="url(#id8)"><path fill="rgb(18.818665%, 33.729553%, 82.348633%)" d="M 35.996094 36.574219 L 35.214844 35.792969 C 41.953125 29.058594 41.953125 18.09375 35.214844 11.359375 C 31.949219 8.089844 27.609375 6.292969 22.996094 6.292969 C 18.386719 6.292969 14.046875 8.089844 10.78125 11.359375 L 10 10.578125 C 13.472656 7.101562 18.089844 5.1875 22.996094 5.1875 C 27.90625 5.1875 32.523438 7.101562 35.996094 10.578125 C 39.472656 14.050781 41.382812 18.667969 41.382812 23.578125 C 41.382812 28.484375 39.472656 33.101562 35.996094 36.574219 " fill-opacity="1" fill-rule="nonzero"/></g></g><g clip-path="url(#id9)"><g clip-path="url(#id10)"><path fill="rgb(18.818665%, 33.729553%, 82.348633%)" d="M 34.421875 35 L 33.640625 34.21875 C 39.507812 28.351562 39.507812 18.800781 33.640625 12.933594 C 27.773438 7.066406 18.222656 7.066406 12.355469 12.933594 L 11.574219 12.152344 C 17.875 5.855469 28.121094 5.855469 34.421875 12.152344 C 40.71875 18.453125 40.71875 28.699219 34.421875 35 " fill-opacity="1" fill-rule="nonzero"/></g></g><g clip-path="url(#id11)"><g clip-path="url(#id12)"><path fill="rgb(18.818665%, 33.729553%, 82.348633%)" d="M 32.84375 33.421875 L 32.0625 32.640625 C 37.0625 27.644531 37.0625 19.507812 32.0625 14.511719 C 27.066406 9.511719 18.929688 9.511719 13.929688 14.511719 L 13.152344 13.730469 C 18.582031 8.300781 27.414062 8.300781 32.84375 13.730469 C 38.273438 19.160156 38.273438 27.992188 32.84375 33.421875 " fill-opacity="1" fill-rule="nonzero"/></g></g><g clip-path="url(#id13)"><g clip-path="url(#id14)"><path fill="rgb(18.818665%, 33.729553%, 82.348633%)" d="M 31.269531 31.847656 L 30.488281 31.066406 C 32.492188 29.0625 33.59375 26.402344 33.59375 23.578125 C 33.59375 20.75 32.492188 18.089844 30.488281 16.085938 C 28.484375 14.082031 25.824219 12.980469 22.996094 12.980469 C 20.171875 12.980469 17.511719 14.082031 15.507812 16.085938 L 14.726562 15.304688 C 19.289062 10.746094 26.707031 10.746094 31.269531 15.304688 C 35.828125 19.867188 35.828125 27.285156 31.269531 31.847656 " fill-opacity="1" fill-rule="nonzero"/></g></g><g clip-path="url(#id15)"><g clip-path="url(#id16)"><path fill="rgb(18.818665%, 33.729553%, 82.348633%)" d="M 29.691406 30.269531 L 28.914062 29.492188 C 32.171875 26.230469 32.171875 20.921875 28.914062 17.660156 C 27.332031 16.082031 25.230469 15.210938 22.996094 15.210938 C 20.765625 15.210938 18.664062 16.082031 17.082031 17.660156 L 16.304688 16.882812 C 19.996094 13.191406 26 13.191406 29.691406 16.882812 C 33.382812 20.574219 33.382812 26.578125 29.691406 30.269531 " fill-opacity="1" fill-rule="nonzero"/></g></g><g clip-path="url(#id17)"><g clip-path="url(#id18)"><path fill="rgb(18.818665%, 33.729553%, 82.348633%)" d="M 28.117188 28.695312 L 27.335938 27.914062 C 29.726562 25.523438 29.726562 21.628906 27.335938 19.238281 C 24.945312 16.847656 21.050781 16.847656 18.660156 19.238281 L 17.878906 18.457031 C 20.703125 15.636719 25.292969 15.636719 28.117188 18.457031 C 30.9375 21.28125 30.9375 25.871094 28.117188 28.695312 " fill-opacity="1" fill-rule="nonzero"/></g></g><g clip-path="url(#id19)"><g clip-path="url(#id20)"><path fill="rgb(18.818665%, 33.729553%, 82.348633%)" d="M 26.539062 27.117188 L 25.761719 26.339844 C 27.28125 24.816406 27.28125 22.335938 25.761719 20.8125 C 24.238281 19.292969 21.757812 19.292969 20.234375 20.8125 L 19.457031 20.035156 C 21.410156 18.082031 24.585938 18.082031 26.539062 20.035156 C 28.492188 21.988281 28.492188 25.164062 26.539062 27.117188 " fill-opacity="1" fill-rule="nonzero"/></g></g><g clip-path="url(#id21)"><g clip-path="url(#id22)"><path fill="rgb(18.818665%, 33.729553%, 82.348633%)" d="M 24.964844 25.542969 L 24.183594 24.761719 C 24.835938 24.109375 24.835938 23.042969 24.183594 22.390625 C 23.53125 21.734375 22.464844 21.738281 21.8125 22.390625 L 21.03125 21.609375 C 22.117188 20.527344 23.878906 20.527344 24.964844 21.609375 C 26.046875 22.695312 26.046875 24.457031 24.964844 25.542969 " fill-opacity="1" fill-rule="nonzero"/></g></g><g clip-path="url(#id23)"><g clip-path="url(#id24)"><path fill="rgb(18.818665%, 33.729553%, 82.348633%)" d="M 15.40625 40.480469 C 8.714844 40.480469 2.417969 37.871094 -2.320312 33.132812 C -7.058594 28.394531 -9.667969 22.097656 -9.667969 15.40625 C -9.667969 8.714844 -7.058594 2.417969 -2.320312 -2.320312 L -1.539062 -1.539062 C -10.882812 7.804688 -10.882812 23.007812 -1.539062 32.351562 C 3.132812 37.023438 9.269531 39.359375 15.40625 39.363281 C 21.542969 39.363281 27.679688 37.027344 32.351562 32.351562 L 33.132812 33.132812 C 28.394531 37.871094 22.097656 40.480469 15.40625 40.480469 " fill-opacity="1" fill-rule="nonzero"/></g></g><g clip-path="url(#id25)"><g clip-path="url(#id26)"><path fill="rgb(18.818665%, 33.729553%, 82.348633%)" d="M 15.40625 38.253906 C 9.308594 38.253906 3.574219 35.875 -0.742188 31.558594 C -5.0625 27.238281 -7.4375 21.503906 -7.4375 15.40625 C -7.4375 9.308594 -5.0625 3.574219 -0.742188 -0.742188 L 0.0351562 0.0351562 C -4.074219 4.144531 -6.335938 9.605469 -6.335938 15.40625 C -6.335938 21.210938 -4.074219 26.667969 0.0351562 30.777344 C 8.511719 39.253906 22.300781 39.253906 30.777344 30.777344 L 31.558594 31.558594 C 27.238281 35.875 21.503906 38.253906 15.40625 38.253906 " fill-opacity="1" fill-rule="nonzero"/></g></g><g clip-path="url(#id27)"><g clip-path="url(#id28)"><path fill="rgb(18.818665%, 33.729553%, 82.348633%)" d="M 15.40625 36.023438 C 9.90625 36.023438 4.726562 33.878906 0.832031 29.980469 C -3.0625 26.085938 -5.210938 20.910156 -5.210938 15.40625 C -5.210938 9.90625 -3.0625 4.726562 0.832031 0.832031 L 1.613281 1.613281 C -2.074219 5.300781 -4.105469 10.199219 -4.105469 15.40625 C -4.105469 20.613281 -2.074219 25.511719 1.613281 29.203125 C 5.300781 32.890625 10.199219 34.917969 15.40625 34.917969 C 20.613281 34.917969 25.515625 32.890625 29.203125 29.203125 L 29.980469 29.980469 C 26.085938 33.878906 20.910156 36.023438 15.40625 36.023438 " fill-opacity="1" fill-rule="nonzero"/></g></g><g clip-path="url(#id29)"><g clip-path="url(#id30)"><path fill="rgb(18.818665%, 33.729553%, 82.348633%)" d="M 15.40625 33.792969 C 10.5 33.792969 5.882812 31.878906 2.410156 28.40625 C -1.066406 24.929688 -2.980469 20.3125 -2.980469 15.40625 C -2.980469 10.5 -1.066406 5.882812 2.410156 2.410156 L 3.1875 3.1875 C -0.078125 6.453125 -1.875 10.792969 -1.875 15.40625 C -1.875 20.019531 -0.078125 24.359375 3.1875 27.625 C 9.925781 34.363281 20.886719 34.363281 27.625 27.625 L 28.40625 28.40625 C 24.929688 31.878906 20.3125 33.792969 15.40625 33.792969 " fill-opacity="1" fill-rule="nonzero"/></g></g><g clip-path="url(#id31)"><g clip-path="url(#id32)"><path fill="rgb(18.818665%, 33.729553%, 82.348633%)" d="M 15.40625 31.5625 C 11.09375 31.5625 7.039062 29.882812 3.984375 26.828125 C -2.3125 20.53125 -2.3125 10.28125 3.984375 3.984375 L 4.765625 4.765625 C -1.105469 10.632812 -1.105469 20.179688 4.765625 26.050781 C 7.609375 28.894531 11.390625 30.460938 15.40625 30.460938 C 19.425781 30.460938 23.203125 28.894531 26.050781 26.050781 L 26.828125 26.828125 C 23.777344 29.882812 19.71875 31.5625 15.40625 31.5625 " fill-opacity="1" fill-rule="nonzero"/></g></g><g clip-path="url(#id33)"><g clip-path="url(#id34)"><path fill="rgb(18.818665%, 33.729553%, 82.348633%)" d="M 15.40625 29.335938 C 11.6875 29.335938 8.191406 27.886719 5.558594 25.253906 C 0.132812 19.824219 0.132812 10.988281 5.558594 5.558594 L 6.339844 6.339844 C 1.339844 11.339844 1.339844 19.472656 6.339844 24.472656 C 8.765625 26.898438 11.984375 28.230469 15.40625 28.230469 C 18.828125 28.230469 22.050781 26.898438 24.472656 24.472656 L 25.253906 25.253906 C 22.621094 27.886719 19.125 29.335938 15.40625 29.335938 " fill-opacity="1" fill-rule="nonzero"/></g></g><g clip-path="url(#id35)"><g clip-path="url(#id36)"><path fill="rgb(18.818665%, 33.729553%, 82.348633%)" d="M 15.40625 27.105469 C 12.285156 27.105469 9.347656 25.886719 7.136719 23.675781 C 2.578125 19.117188 2.578125 11.695312 7.136719 7.136719 L 7.917969 7.917969 C 5.914062 9.917969 4.8125 12.578125 4.8125 15.40625 C 4.8125 18.234375 5.914062 20.894531 7.917969 22.898438 C 9.917969 24.898438 12.578125 26.003906 15.40625 26.003906 C 18.234375 26.003906 20.894531 24.898438 22.898438 22.898438 L 23.675781 23.675781 C 21.464844 25.886719 18.53125 27.105469 15.40625 27.105469 " fill-opacity="1" fill-rule="nonzero"/></g></g><g clip-path="url(#id37)"><g clip-path="url(#id38)"><path fill="rgb(18.818665%, 33.729553%, 82.348633%)" d="M 15.40625 24.871094 C 12.980469 24.871094 10.558594 23.945312 8.710938 22.101562 C 5.019531 18.410156 5.019531 12.402344 8.710938 8.710938 L 9.492188 9.492188 C 7.910156 11.074219 7.039062 13.175781 7.039062 15.40625 C 7.039062 17.640625 7.910156 19.738281 9.492188 21.320312 C 12.753906 24.582031 18.058594 24.582031 21.320312 21.320312 L 22.101562 22.101562 C 20.253906 23.945312 17.832031 24.871094 15.40625 24.871094 " fill-opacity="1" fill-rule="nonzero"/></g></g><g clip-path="url(#id39)"><g clip-path="url(#id40)"><path fill="rgb(18.818665%, 33.729553%, 82.348633%)" d="M 15.40625 22.640625 C 13.554688 22.640625 11.699219 21.9375 10.289062 20.523438 C 7.464844 17.703125 7.464844 13.109375 10.289062 10.289062 L 11.070312 11.070312 C 8.675781 13.460938 8.675781 17.351562 11.070312 19.746094 C 12.265625 20.941406 13.835938 21.539062 15.40625 21.539062 C 16.976562 21.539062 18.546875 20.941406 19.746094 19.746094 L 20.523438 20.523438 C 19.113281 21.9375 17.261719 22.640625 15.40625 22.640625 " fill-opacity="1" fill-rule="nonzero"/></g></g><g clip-path="url(#id41)"><g clip-path="url(#id42)"><path fill="rgb(18.818665%, 33.729553%, 82.348633%)" d="M 15.40625 20.417969 C 14.070312 20.417969 12.8125 19.894531 11.863281 18.949219 C 9.910156 16.996094 9.910156 13.816406 11.863281 11.863281 L 12.644531 12.644531 C 11.121094 14.167969 11.121094 16.644531 12.644531 18.167969 C 13.382812 18.90625 14.363281 19.3125 15.40625 19.3125 C 16.449219 19.3125 17.429688 18.90625 18.167969 18.167969 L 18.949219 18.949219 C 18.003906 19.894531 16.746094 20.417969 15.40625 20.417969 " fill-opacity="1" fill-rule="nonzero"/></g></g><g clip-path="url(#id43)"><g clip-path="url(#id44)"><path fill="rgb(18.818665%, 33.729553%, 82.348633%)" d="M 15.40625 18.1875 C 14.695312 18.1875 13.984375 17.914062 13.441406 17.371094 C 12.914062 16.847656 12.625 16.148438 12.625 15.40625 C 12.625 14.664062 12.914062 13.964844 13.441406 13.441406 L 14.222656 14.222656 C 13.902344 14.539062 13.730469 14.960938 13.730469 15.40625 C 13.730469 15.855469 13.902344 16.277344 14.222656 16.59375 C 14.875 17.246094 15.9375 17.246094 16.59375 16.59375 L 17.371094 17.371094 C 16.832031 17.914062 16.117188 18.1875 15.40625 18.1875 " fill-opacity="1" fill-rule="nonzero"/></g></g></svg>