<svg xmlns="http://www.w3.org/2000/svg" xmlns:xlink="http://www.w3.org/1999/xlink" width="460" zoomAndPan="magnify" viewBox="0 0 345 86.249997" height="115" preserveAspectRatio="xMidYMid meet" version="1.0"><defs><g/><clipPath id="id1"><path d="M 39.0625 7.222656 L 97.132812 7.222656 L 97.132812 73.394531 L 39.0625 73.394531 Z M 39.0625 7.222656 " clip-rule="nonzero"/></clipPath><clipPath id="id2"><path d="M 97.140625 40.316406 C 97.140625 58.589844 82.324219 73.402344 64.050781 73.402344 C 45.777344 73.402344 30.960938 58.589844 30.960938 40.316406 C 30.960938 22.039062 45.777344 7.226562 64.050781 7.226562 C 82.324219 7.226562 97.140625 22.039062 97.140625 40.316406 Z M 97.140625 40.316406 " clip-rule="nonzero"/></clipPath><clipPath id="id3"><path d="M 42.03125 7.222656 L 97.132812 7.222656 L 97.132812 73.394531 L 42.03125 73.394531 Z M 42.03125 7.222656 " clip-rule="nonzero"/></clipPath><clipPath id="id4"><path d="M 97.140625 40.316406 C 97.140625 58.589844 82.324219 73.402344 64.050781 73.402344 C 45.777344 73.402344 30.960938 58.589844 30.960938 40.316406 C 30.960938 22.039062 45.777344 7.226562 64.050781 7.226562 C 82.324219 7.226562 97.140625 22.039062 97.140625 40.316406 Z M 97.140625 40.316406 " clip-rule="nonzero"/></clipPath><clipPath id="id5"><path d="M 45 11 L 97.132812 11 L 97.132812 73.394531 L 45 73.394531 Z M 45 11 " clip-rule="nonzero"/></clipPath><clipPath id="id6"><path d="M 97.140625 40.316406 C 97.140625 58.589844 82.324219 73.402344 64.050781 73.402344 C 45.777344 73.402344 30.960938 58.589844 30.960938 40.316406 C 30.960938 22.039062 45.777344 7.226562 64.050781 7.226562 C 82.324219 7.226562 97.140625 22.039062 97.140625 40.316406 Z M 97.140625 40.316406 " clip-rule="nonzero"/></clipPath><clipPath id="id7"><path d="M 47.96875 15.203125 L 97.132812 15.203125 L 97.132812 73.394531 L 47.96875 73.394531 Z M 47.96875 15.203125 " clip-rule="nonzero"/></clipPath><clipPath id="id8"><path d="M 97.140625 40.316406 C 97.140625 58.589844 82.324219 73.402344 64.050781 73.402344 C 45.777344 73.402344 30.960938 58.589844 30.960938 40.316406 C 30.960938 22.039062 45.777344 7.226562 64.050781 7.226562 C 82.324219 7.226562 97.140625 22.039062 97.140625 40.316406 Z M 97.140625 40.316406 " clip-rule="nonzero"/></clipPath><clipPath id="id9"><path d="M 50.9375 19.40625 L 97.132812 19.40625 L 97.132812 71.242188 L 50.9375 71.242188 Z M 50.9375 19.40625 " clip-rule="nonzero"/></clipPath><clipPath id="id10"><path d="M 97.140625 40.316406 C 97.140625 58.589844 82.324219 73.402344 64.050781 73.402344 C 45.777344 73.402344 30.960938 58.589844 30.960938 40.316406 C 30.960938 22.039062 45.777344 7.226562 64.050781 7.226562 C 82.324219 7.226562 97.140625 22.039062 97.140625 40.316406 Z M 97.140625 40.316406 " clip-rule="nonzero"/></clipPath><clipPath id="id11"><path d="M 53.78125 23.488281 L 97.132812 23.488281 L 97.132812 68.273438 L 53.78125 68.273438 Z M 53.78125 23.488281 " clip-rule="nonzero"/></clipPath><clipPath id="id12"><path d="M 97.140625 40.316406 C 97.140625 58.589844 82.324219 73.402344 64.050781 73.402344 C 45.777344 73.402344 30.960938 58.589844 30.960938 40.316406 C 30.960938 22.039062 45.777344 7.226562 64.050781 7.226562 C 82.324219 7.226562 97.140625 22.039062 97.140625 40.316406 Z M 97.140625 40.316406 " clip-rule="nonzero"/></clipPath><clipPath id="id13"><path d="M 56.75 27.695312 L 94.359375 27.695312 L 94.359375 65.304688 L 56.75 65.304688 Z M 56.75 27.695312 " clip-rule="nonzero"/></clipPath><clipPath id="id14"><path d="M 97.140625 40.316406 C 97.140625 58.589844 82.324219 73.402344 64.050781 73.402344 C 45.777344 73.402344 30.960938 58.589844 30.960938 40.316406 C 30.960938 22.039062 45.777344 7.226562 64.050781 7.226562 C 82.324219 7.226562 97.140625 22.039062 97.140625 40.316406 Z M 97.140625 40.316406 " clip-rule="nonzero"/></clipPath><clipPath id="id15"><path d="M 59.722656 31.902344 L 90.15625 31.902344 L 90.15625 62.335938 L 59.722656 62.335938 Z M 59.722656 31.902344 " clip-rule="nonzero"/></clipPath><clipPath id="id16"><path d="M 97.140625 40.316406 C 97.140625 58.589844 82.324219 73.402344 64.050781 73.402344 C 45.777344 73.402344 30.960938 58.589844 30.960938 40.316406 C 30.960938 22.039062 45.777344 7.226562 64.050781 7.226562 C 82.324219 7.226562 97.140625 22.039062 97.140625 40.316406 Z M 97.140625 40.316406 " clip-rule="nonzero"/></clipPath><clipPath id="id17"><path d="M 62.691406 36.109375 L 86 36.109375 L 86 59.367188 L 62.691406 59.367188 Z M 62.691406 36.109375 " clip-rule="nonzero"/></clipPath><clipPath id="id18"><path d="M 97.140625 40.316406 C 97.140625 58.589844 82.324219 73.402344 64.050781 73.402344 C 45.777344 73.402344 30.960938 58.589844 30.960938 40.316406 C 30.960938 22.039062 45.777344 7.226562 64.050781 7.226562 C 82.324219 7.226562 97.140625 22.039062 97.140625 40.316406 Z M 97.140625 40.316406 " clip-rule="nonzero"/></clipPath><clipPath id="id19"><path d="M 65.660156 40.316406 L 81.867188 40.316406 L 81.867188 56.398438 L 65.660156 56.398438 Z M 65.660156 40.316406 " clip-rule="nonzero"/></clipPath><clipPath id="id20"><path d="M 97.140625 40.316406 C 97.140625 58.589844 82.324219 73.402344 64.050781 73.402344 C 45.777344 73.402344 30.960938 58.589844 30.960938 40.316406 C 30.960938 22.039062 45.777344 7.226562 64.050781 7.226562 C 82.324219 7.226562 97.140625 22.039062 97.140625 40.316406 Z M 97.140625 40.316406 " clip-rule="nonzero"/></clipPath><clipPath id="id21"><path d="M 68.628906 44.398438 L 77.660156 44.398438 L 77.660156 53.429688 L 68.628906 53.429688 Z M 68.628906 44.398438 " clip-rule="nonzero"/></clipPath><clipPath id="id22"><path d="M 97.140625 40.316406 C 97.140625 58.589844 82.324219 73.402344 64.050781 73.402344 C 45.777344 73.402344 30.960938 58.589844 30.960938 40.316406 C 30.960938 22.039062 45.777344 7.226562 64.050781 7.226562 C 82.324219 7.226562 97.140625 22.039062 97.140625 40.316406 Z M 97.140625 40.316406 " clip-rule="nonzero"/></clipPath><clipPath id="id23"><path d="M 30.957031 7.222656 L 91.515625 7.222656 L 91.515625 73.394531 L 30.957031 73.394531 Z M 30.957031 7.222656 " clip-rule="nonzero"/></clipPath><clipPath id="id24"><path d="M 97.140625 40.316406 C 97.140625 58.589844 82.324219 73.402344 64.050781 73.402344 C 45.777344 73.402344 30.960938 58.589844 30.960938 40.316406 C 30.960938 22.039062 45.777344 7.226562 64.050781 7.226562 C 82.324219 7.226562 97.140625 22.039062 97.140625 40.316406 Z M 97.140625 40.316406 " clip-rule="nonzero"/></clipPath><clipPath id="id25"><path d="M 30.957031 7.222656 L 88.546875 7.222656 L 88.546875 73.394531 L 30.957031 73.394531 Z M 30.957031 7.222656 " clip-rule="nonzero"/></clipPath><clipPath id="id26"><path d="M 97.140625 40.316406 C 97.140625 58.589844 82.324219 73.402344 64.050781 73.402344 C 45.777344 73.402344 30.960938 58.589844 30.960938 40.316406 C 30.960938 22.039062 45.777344 7.226562 64.050781 7.226562 C 82.324219 7.226562 97.140625 22.039062 97.140625 40.316406 Z M 97.140625 40.316406 " clip-rule="nonzero"/></clipPath><clipPath id="id27"><path d="M 30.957031 7.222656 L 85.578125 7.222656 L 85.578125 73.222656 L 30.957031 73.222656 Z M 30.957031 7.222656 " clip-rule="nonzero"/></clipPath><clipPath id="id28"><path d="M 97.140625 40.316406 C 97.140625 58.589844 82.324219 73.402344 64.050781 73.402344 C 45.777344 73.402344 30.960938 58.589844 30.960938 40.316406 C 30.960938 22.039062 45.777344 7.226562 64.050781 7.226562 C 82.324219 7.226562 97.140625 22.039062 97.140625 40.316406 Z M 97.140625 40.316406 " clip-rule="nonzero"/></clipPath><clipPath id="id29"><path d="M 30.957031 9.882812 L 82.609375 9.882812 L 82.609375 69 L 30.957031 69 Z M 30.957031 9.882812 " clip-rule="nonzero"/></clipPath><clipPath id="id30"><path d="M 97.140625 40.316406 C 97.140625 58.589844 82.324219 73.402344 64.050781 73.402344 C 45.777344 73.402344 30.960938 58.589844 30.960938 40.316406 C 30.960938 22.039062 45.777344 7.226562 64.050781 7.226562 C 82.324219 7.226562 97.140625 22.039062 97.140625 40.316406 Z M 97.140625 40.316406 " clip-rule="nonzero"/></clipPath><clipPath id="id31"><path d="M 30.957031 12.851562 L 79.640625 12.851562 L 79.640625 64.808594 L 30.957031 64.808594 Z M 30.957031 12.851562 " clip-rule="nonzero"/></clipPath><clipPath id="id32"><path d="M 97.140625 40.316406 C 97.140625 58.589844 82.324219 73.402344 64.050781 73.402344 C 45.777344 73.402344 30.960938 58.589844 30.960938 40.316406 C 30.960938 22.039062 45.777344 7.226562 64.050781 7.226562 C 82.324219 7.226562 97.140625 22.039062 97.140625 40.316406 Z M 97.140625 40.316406 " clip-rule="nonzero"/></clipPath><clipPath id="id33"><path d="M 32 15.820312 L 76.667969 15.820312 L 76.667969 60.605469 L 32 60.605469 Z M 32 15.820312 " clip-rule="nonzero"/></clipPath><clipPath id="id34"><path d="M 97.140625 40.316406 C 97.140625 58.589844 82.324219 73.402344 64.050781 73.402344 C 45.777344 73.402344 30.960938 58.589844 30.960938 40.316406 C 30.960938 22.039062 45.777344 7.226562 64.050781 7.226562 C 82.324219 7.226562 97.140625 22.039062 97.140625 40.316406 Z M 97.140625 40.316406 " clip-rule="nonzero"/></clipPath><clipPath id="id35"><path d="M 36.089844 18.789062 L 73.699219 18.789062 L 73.699219 56.398438 L 36.089844 56.398438 Z M 36.089844 18.789062 " clip-rule="nonzero"/></clipPath><clipPath id="id36"><path d="M 97.140625 40.316406 C 97.140625 58.589844 82.324219 73.402344 64.050781 73.402344 C 45.777344 73.402344 30.960938 58.589844 30.960938 40.316406 C 30.960938 22.039062 45.777344 7.226562 64.050781 7.226562 C 82.324219 7.226562 97.140625 22.039062 97.140625 40.316406 Z M 97.140625 40.316406 " clip-rule="nonzero"/></clipPath><clipPath id="id37"><path d="M 40.296875 21.757812 L 70.730469 21.757812 L 70.730469 52.191406 L 40.296875 52.191406 Z M 40.296875 21.757812 " clip-rule="nonzero"/></clipPath><clipPath id="id38"><path d="M 97.140625 40.316406 C 97.140625 58.589844 82.324219 73.402344 64.050781 73.402344 C 45.777344 73.402344 30.960938 58.589844 30.960938 40.316406 C 30.960938 22.039062 45.777344 7.226562 64.050781 7.226562 C 82.324219 7.226562 97.140625 22.039062 97.140625 40.316406 Z M 97.140625 40.316406 " clip-rule="nonzero"/></clipPath><clipPath id="id39"><path d="M 44.503906 24.726562 L 67.761719 24.726562 L 67.761719 47.984375 L 44.503906 47.984375 Z M 44.503906 24.726562 " clip-rule="nonzero"/></clipPath><clipPath id="id40"><path d="M 97.140625 40.316406 C 97.140625 58.589844 82.324219 73.402344 64.050781 73.402344 C 45.777344 73.402344 30.960938 58.589844 30.960938 40.316406 C 30.960938 22.039062 45.777344 7.226562 64.050781 7.226562 C 82.324219 7.226562 97.140625 22.039062 97.140625 40.316406 Z M 97.140625 40.316406 " clip-rule="nonzero"/></clipPath><clipPath id="id41"><path d="M 48.710938 27.695312 L 64.792969 27.695312 L 64.792969 43.902344 L 48.710938 43.902344 Z M 48.710938 27.695312 " clip-rule="nonzero"/></clipPath><clipPath id="id42"><path d="M 97.140625 40.316406 C 97.140625 58.589844 82.324219 73.402344 64.050781 73.402344 C 45.777344 73.402344 30.960938 58.589844 30.960938 40.316406 C 30.960938 22.039062 45.777344 7.226562 64.050781 7.226562 C 82.324219 7.226562 97.140625 22.039062 97.140625 40.316406 Z M 97.140625 40.316406 " clip-rule="nonzero"/></clipPath><clipPath id="id43"><path d="M 52.792969 30.664062 L 61.949219 30.664062 L 61.949219 39.695312 L 52.792969 39.695312 Z M 52.792969 30.664062 " clip-rule="nonzero"/></clipPath><clipPath id="id44"><path d="M 97.140625 40.316406 C 97.140625 58.589844 82.324219 73.402344 64.050781 73.402344 C 45.777344 73.402344 30.960938 58.589844 30.960938 40.316406 C 30.960938 22.039062 45.777344 7.226562 64.050781 7.226562 C 82.324219 7.226562 97.140625 22.039062 97.140625 40.316406 Z M 97.140625 40.316406 " clip-rule="nonzero"/></clipPath></defs><g clip-path="url(#id1)"><g clip-path="url(#id2)"><path fill="rgb(18.818665%, 33.729553%, 82.348633%)" d="M 105.664062 83.011719 L 104.199219 81.546875 C 121.738281 64.003906 121.738281 35.460938 104.199219 17.921875 C 86.65625 0.378906 58.113281 0.378906 40.570312 17.921875 L 39.105469 16.457031 C 48 7.558594 59.820312 2.660156 72.382812 2.660156 C 84.949219 2.660156 96.765625 7.558594 105.664062 16.457031 C 114.558594 25.351562 119.457031 37.171875 119.457031 49.734375 C 119.457031 62.296875 114.558594 74.117188 105.664062 83.011719 " fill-opacity="1" fill-rule="nonzero"/></g></g><g clip-path="url(#id3)"><g clip-path="url(#id4)"><path fill="rgb(18.818665%, 33.729553%, 82.348633%)" d="M 102.703125 80.054688 L 101.238281 78.589844 C 108.953125 70.875 113.199219 60.628906 113.199219 49.734375 C 113.199219 38.839844 108.953125 28.59375 101.238281 20.878906 C 85.328125 4.96875 59.441406 4.96875 43.527344 20.878906 L 42.066406 19.414062 C 50.167969 11.308594 60.9375 6.847656 72.382812 6.847656 C 83.832031 6.847656 94.597656 11.308594 102.703125 19.414062 C 110.808594 27.519531 115.273438 38.289062 115.273438 49.734375 C 115.273438 61.179688 110.808594 71.949219 102.703125 80.054688 " fill-opacity="1" fill-rule="nonzero"/></g></g><g clip-path="url(#id5)"><g clip-path="url(#id6)"><path fill="rgb(18.818665%, 33.729553%, 82.348633%)" d="M 99.746094 77.09375 L 98.28125 75.628906 C 112.558594 61.351562 112.558594 38.117188 98.28125 23.839844 C 84 9.558594 60.765625 9.558594 46.488281 23.839844 L 45.023438 22.375 C 52.335938 15.058594 62.054688 11.03125 72.382812 11.03125 C 82.714844 11.03125 92.429688 15.058594 99.746094 22.375 C 107.058594 29.6875 111.085938 39.40625 111.085938 49.734375 C 111.085938 60.0625 107.058594 69.78125 99.746094 77.09375 " fill-opacity="1" fill-rule="nonzero"/></g></g><g clip-path="url(#id7)"><g clip-path="url(#id8)"><path fill="rgb(18.818665%, 33.729553%, 82.348633%)" d="M 96.785156 74.136719 L 95.320312 72.671875 C 107.96875 60.023438 107.96875 39.445312 95.320312 26.796875 C 89.1875 20.664062 81.042969 17.289062 72.382812 17.289062 C 63.726562 17.289062 55.578125 20.664062 49.445312 26.796875 L 47.980469 25.332031 C 54.503906 18.808594 63.171875 15.214844 72.382812 15.214844 C 81.597656 15.214844 90.261719 18.808594 96.785156 25.332031 C 103.308594 31.855469 106.902344 40.519531 106.902344 49.734375 C 106.902344 58.945312 103.308594 67.613281 96.785156 74.136719 " fill-opacity="1" fill-rule="nonzero"/></g></g><g clip-path="url(#id9)"><g clip-path="url(#id10)"><path fill="rgb(18.818665%, 33.729553%, 82.348633%)" d="M 93.828125 71.175781 L 92.363281 69.714844 C 103.378906 58.695312 103.378906 40.773438 92.363281 29.753906 C 81.347656 18.738281 63.421875 18.738281 52.40625 29.753906 L 50.941406 28.289062 C 62.765625 16.46875 82.003906 16.46875 93.828125 28.289062 C 105.652344 40.113281 105.652344 59.351562 93.828125 71.175781 " fill-opacity="1" fill-rule="nonzero"/></g></g><g clip-path="url(#id11)"><g clip-path="url(#id12)"><path fill="rgb(18.818665%, 33.729553%, 82.348633%)" d="M 90.867188 68.21875 L 89.402344 66.753906 C 98.789062 57.371094 98.789062 42.097656 89.402344 32.714844 C 80.019531 23.328125 64.75 23.328125 55.363281 32.714844 L 53.898438 31.25 C 64.09375 21.058594 80.675781 21.058594 90.867188 31.25 C 101.0625 41.441406 101.0625 58.027344 90.867188 68.21875 " fill-opacity="1" fill-rule="nonzero"/></g></g><g clip-path="url(#id13)"><g clip-path="url(#id14)"><path fill="rgb(18.818665%, 33.729553%, 82.348633%)" d="M 87.910156 65.261719 L 86.445312 63.796875 C 90.203125 60.035156 92.273438 55.042969 92.273438 49.734375 C 92.273438 44.425781 90.203125 39.433594 86.445312 35.671875 C 82.6875 31.914062 77.691406 29.84375 72.382812 29.84375 C 67.074219 29.84375 62.082031 31.914062 58.324219 35.671875 L 56.859375 34.207031 C 65.417969 25.648438 79.347656 25.648438 87.910156 34.207031 C 96.46875 42.769531 96.46875 56.699219 87.910156 65.261719 " fill-opacity="1" fill-rule="nonzero"/></g></g><g clip-path="url(#id15)"><g clip-path="url(#id16)"><path fill="rgb(18.818665%, 33.729553%, 82.348633%)" d="M 84.953125 62.300781 L 83.488281 60.835938 C 89.609375 54.714844 89.609375 44.753906 83.488281 38.632812 C 80.519531 35.664062 76.574219 34.027344 72.382812 34.027344 C 68.191406 34.027344 64.25 35.664062 61.28125 38.632812 L 59.816406 37.167969 C 66.746094 30.238281 78.019531 30.238281 84.953125 37.167969 C 91.878906 44.097656 91.878906 55.371094 84.953125 62.300781 " fill-opacity="1" fill-rule="nonzero"/></g></g><g clip-path="url(#id17)"><g clip-path="url(#id18)"><path fill="rgb(18.818665%, 33.729553%, 82.348633%)" d="M 81.992188 59.34375 L 80.527344 57.878906 C 85.019531 53.386719 85.019531 46.082031 80.527344 41.589844 C 76.035156 37.097656 68.730469 37.101562 64.238281 41.589844 L 62.777344 40.125 C 68.074219 34.828125 76.695312 34.828125 81.992188 40.125 C 87.289062 45.425781 87.289062 54.042969 81.992188 59.34375 " fill-opacity="1" fill-rule="nonzero"/></g></g><g clip-path="url(#id19)"><g clip-path="url(#id20)"><path fill="rgb(18.818665%, 33.729553%, 82.348633%)" d="M 79.035156 56.382812 L 77.570312 54.917969 C 80.429688 52.058594 80.429688 47.410156 77.570312 44.550781 C 74.710938 41.691406 70.058594 41.691406 67.199219 44.550781 L 65.734375 43.085938 C 69.402344 39.417969 75.367188 39.417969 79.035156 43.085938 C 82.699219 46.75 82.699219 52.71875 79.035156 56.382812 " fill-opacity="1" fill-rule="nonzero"/></g></g><g clip-path="url(#id21)"><g clip-path="url(#id22)"><path fill="rgb(18.818665%, 33.729553%, 82.348633%)" d="M 76.074219 53.425781 L 74.609375 51.960938 C 75.839844 50.734375 75.839844 48.734375 74.609375 47.507812 C 73.382812 46.28125 71.382812 46.28125 70.15625 47.507812 L 68.691406 46.042969 C 70.726562 44.007812 74.039062 44.007812 76.074219 46.042969 C 78.109375 48.078125 78.109375 51.390625 76.074219 53.425781 " fill-opacity="1" fill-rule="nonzero"/></g></g><g clip-path="url(#id23)"><g clip-path="url(#id24)"><path fill="rgb(18.818665%, 33.729553%, 82.348633%)" d="M 58.132812 81.472656 C 45.570312 81.472656 33.75 76.570312 24.855469 67.675781 C 15.960938 58.78125 11.058594 46.960938 11.058594 34.398438 C 11.058594 21.832031 15.960938 10.015625 24.855469 1.121094 L 26.320312 2.585938 C 8.777344 20.125 8.777344 48.667969 26.320312 66.210938 C 35.089844 74.980469 46.613281 79.367188 58.132812 79.367188 C 69.65625 79.367188 81.175781 74.984375 89.945312 66.210938 L 91.410156 67.675781 C 82.515625 76.570312 70.695312 81.472656 58.132812 81.472656 " fill-opacity="1" fill-rule="nonzero"/></g></g><g clip-path="url(#id25)"><g clip-path="url(#id26)"><path fill="rgb(18.818665%, 33.729553%, 82.348633%)" d="M 58.132812 77.285156 C 46.6875 77.285156 35.917969 72.824219 27.8125 64.71875 C 19.710938 56.613281 15.246094 45.84375 15.246094 34.398438 C 15.246094 22.953125 19.710938 12.183594 27.8125 4.078125 L 29.277344 5.542969 C 21.566406 13.257812 17.316406 23.503906 17.316406 34.398438 C 17.316406 45.292969 21.566406 55.539062 29.277344 63.253906 C 45.1875 79.164062 71.078125 79.164062 86.988281 63.253906 L 88.453125 64.71875 C 80.347656 72.824219 69.582031 77.285156 58.132812 77.285156 " fill-opacity="1" fill-rule="nonzero"/></g></g><g clip-path="url(#id27)"><g clip-path="url(#id28)"><path fill="rgb(18.818665%, 33.729553%, 82.348633%)" d="M 58.132812 73.101562 C 47.804688 73.101562 38.085938 69.074219 30.773438 61.757812 C 23.457031 54.445312 19.429688 44.726562 19.429688 34.398438 C 19.429688 24.066406 23.457031 14.351562 30.773438 7.035156 L 32.238281 8.5 C 25.3125 15.425781 21.5 24.621094 21.5 34.398438 C 21.5 44.175781 25.3125 53.371094 32.238281 60.292969 C 39.160156 67.214844 48.355469 71.03125 58.132812 71.03125 C 67.910156 71.03125 77.105469 67.214844 84.03125 60.292969 L 85.492188 61.757812 C 78.179688 69.074219 68.464844 73.101562 58.132812 73.101562 " fill-opacity="1" fill-rule="nonzero"/></g></g><g clip-path="url(#id29)"><g clip-path="url(#id30)"><path fill="rgb(18.818665%, 33.729553%, 82.348633%)" d="M 58.132812 68.914062 C 48.921875 68.914062 40.253906 65.324219 33.730469 58.800781 C 27.207031 52.277344 23.617188 43.609375 23.617188 34.398438 C 23.617188 25.183594 27.207031 16.519531 33.730469 9.996094 L 35.195312 11.460938 C 29.0625 17.59375 25.6875 25.738281 25.6875 34.398438 C 25.6875 43.058594 29.0625 51.203125 35.195312 57.335938 C 47.84375 69.984375 68.421875 69.984375 81.070312 57.335938 L 82.535156 58.800781 C 76.011719 65.324219 67.347656 68.914062 58.132812 68.914062 " fill-opacity="1" fill-rule="nonzero"/></g></g><g clip-path="url(#id31)"><g clip-path="url(#id32)"><path fill="rgb(18.818665%, 33.729553%, 82.348633%)" d="M 58.132812 64.730469 C 50.039062 64.730469 42.421875 61.574219 36.691406 55.839844 C 24.867188 44.015625 24.867188 24.777344 36.691406 12.953125 L 38.15625 14.417969 C 27.136719 25.433594 27.136719 43.359375 38.15625 54.375 C 43.496094 59.71875 50.589844 62.660156 58.132812 62.660156 C 65.675781 62.660156 72.769531 59.71875 78.113281 54.375 L 79.578125 55.839844 C 73.84375 61.574219 66.230469 64.730469 58.132812 64.730469 " fill-opacity="1" fill-rule="nonzero"/></g></g><g clip-path="url(#id33)"><g clip-path="url(#id34)"><path fill="rgb(18.818665%, 33.729553%, 82.348633%)" d="M 58.132812 60.542969 C 51.15625 60.542969 44.589844 57.824219 39.648438 52.882812 C 29.457031 42.691406 29.457031 26.105469 39.648438 15.914062 L 41.113281 17.378906 C 31.730469 26.761719 31.730469 42.03125 41.113281 51.417969 C 45.664062 55.96875 51.707031 58.472656 58.132812 58.472656 C 64.558594 58.472656 70.601562 55.96875 75.152344 51.417969 L 76.617188 52.882812 C 71.675781 57.824219 65.113281 60.542969 58.132812 60.542969 " fill-opacity="1" fill-rule="nonzero"/></g></g><g clip-path="url(#id35)"><g clip-path="url(#id36)"><path fill="rgb(18.818665%, 33.729553%, 82.348633%)" d="M 58.132812 56.359375 C 52.269531 56.359375 46.757812 54.074219 42.609375 49.921875 C 34.046875 41.363281 34.046875 27.433594 42.609375 18.871094 L 44.070312 20.335938 C 40.3125 24.09375 38.242188 29.089844 38.242188 34.398438 C 38.242188 39.707031 40.3125 44.699219 44.070312 48.457031 C 47.832031 52.21875 52.824219 54.289062 58.132812 54.289062 C 63.441406 54.289062 68.433594 52.21875 72.195312 48.457031 L 73.660156 49.921875 C 69.507812 54.074219 63.996094 56.359375 58.132812 56.359375 " fill-opacity="1" fill-rule="nonzero"/></g></g><g clip-path="url(#id37)"><g clip-path="url(#id38)"><path fill="rgb(18.818665%, 33.729553%, 82.348633%)" d="M 58.132812 52.164062 C 53.582031 52.164062 49.03125 50.429688 45.566406 46.964844 C 38.636719 40.035156 38.636719 28.761719 45.566406 21.832031 L 47.03125 23.296875 C 44.0625 26.261719 42.429688 30.207031 42.429688 34.398438 C 42.429688 38.589844 44.0625 42.53125 47.03125 45.5 C 53.152344 51.621094 63.113281 51.621094 69.234375 45.5 L 70.699219 46.964844 C 67.234375 50.429688 62.683594 52.164062 58.132812 52.164062 " fill-opacity="1" fill-rule="nonzero"/></g></g><g clip-path="url(#id39)"><g clip-path="url(#id40)"><path fill="rgb(18.818665%, 33.729553%, 82.348633%)" d="M 58.132812 47.980469 C 54.652344 47.980469 51.175781 46.65625 48.523438 44.007812 C 43.226562 38.707031 43.226562 30.085938 48.523438 24.789062 L 49.988281 26.253906 C 45.5 30.746094 45.5 38.050781 49.988281 42.542969 C 52.234375 44.785156 55.183594 45.910156 58.132812 45.910156 C 61.082031 45.910156 64.03125 44.789062 66.277344 42.542969 L 67.742188 44.007812 C 65.09375 46.65625 61.613281 47.980469 58.132812 47.980469 " fill-opacity="1" fill-rule="nonzero"/></g></g><g clip-path="url(#id41)"><g clip-path="url(#id42)"><path fill="rgb(18.818665%, 33.729553%, 82.348633%)" d="M 58.132812 43.804688 C 55.621094 43.804688 53.261719 42.824219 51.484375 41.046875 C 47.816406 37.378906 47.816406 31.414062 51.484375 27.746094 L 52.949219 29.210938 C 50.089844 32.070312 50.089844 36.722656 52.949219 39.582031 C 54.335938 40.96875 56.175781 41.734375 58.132812 41.734375 C 60.089844 41.734375 61.933594 40.96875 63.320312 39.582031 L 64.78125 41.046875 C 63.003906 42.824219 60.644531 43.804688 58.132812 43.804688 " fill-opacity="1" fill-rule="nonzero"/></g></g><g clip-path="url(#id43)"><g clip-path="url(#id44)"><path fill="rgb(18.818665%, 33.729553%, 82.348633%)" d="M 58.132812 39.613281 C 56.796875 39.613281 55.460938 39.105469 54.441406 38.089844 C 53.457031 37.101562 52.914062 35.792969 52.914062 34.398438 C 52.914062 33.003906 53.457031 31.691406 54.441406 30.707031 L 55.90625 32.171875 C 55.3125 32.765625 54.984375 33.558594 54.984375 34.398438 C 54.984375 35.238281 55.3125 36.027344 55.90625 36.625 C 57.136719 37.851562 59.132812 37.851562 60.359375 36.625 L 61.824219 38.089844 C 60.808594 39.105469 59.46875 39.613281 58.132812 39.613281 " fill-opacity="1" fill-rule="nonzero"/></g></g><g fill="rgb(9.408569%, 9.408569%, 9.408569%)" fill-opacity="1"><g transform="translate(105.272979, 60.226289)"><g><path d="M 22.191406 -20.929688 L 22.191406 -14.277344 L 34.234375 -14.277344 C 32.742188 -10.148438 28.210938 -7.398438 23.050781 -7.398438 C 15.828125 -7.398438 11.066406 -12.558594 11.066406 -20.011719 C 11.066406 -27.523438 15.941406 -32.683594 23.050781 -32.683594 C 28.097656 -32.683594 32.339844 -29.988281 34.0625 -25.6875 L 43.007812 -25.6875 C 41.113281 -34.691406 32.855469 -41 22.878906 -41 C 11.007812 -41 2.234375 -31.996094 2.234375 -20.011719 C 2.234375 -7.96875 11.238281 0.917969 23.050781 0.917969 C 35.09375 0.917969 43.523438 -8.371094 43.523438 -20.929688 Z M 22.191406 -20.929688 "/></g></g></g><g fill="rgb(9.408569%, 9.408569%, 9.408569%)" fill-opacity="1"><g transform="translate(150.967739, 60.226289)"><g><path d="M 18.691406 0.917969 C 28.269531 0.917969 35.4375 -6.136719 35.4375 -15.480469 C 35.4375 -24.828125 28.269531 -31.824219 18.691406 -31.824219 C 9.117188 -31.824219 1.949219 -24.828125 1.949219 -15.480469 C 1.949219 -6.136719 9.117188 0.917969 18.691406 0.917969 Z M 18.691406 -6.996094 C 13.875 -6.996094 10.4375 -10.4375 10.4375 -15.480469 C 10.4375 -20.472656 13.875 -23.96875 18.691406 -23.96875 C 23.511719 -23.96875 26.949219 -20.472656 26.949219 -15.480469 C 26.949219 -10.4375 23.511719 -6.996094 18.691406 -6.996094 Z M 18.691406 -6.996094 "/></g></g></g><g fill="rgb(9.408569%, 9.408569%, 9.408569%)" fill-opacity="1"><g transform="translate(188.406484, 60.226289)"><g><path d="M 4.015625 0 L 12.386719 0 L 12.386719 -42.089844 L 4.015625 -42.089844 Z M 4.015625 0 "/></g></g></g><g fill="rgb(9.408569%, 9.408569%, 9.408569%)" fill-opacity="1"><g transform="translate(204.803848, 60.226289)"><g><path d="M 18.691406 0.917969 C 28.269531 0.917969 35.4375 -6.136719 35.4375 -15.480469 C 35.4375 -24.828125 28.269531 -31.824219 18.691406 -31.824219 C 9.117188 -31.824219 1.949219 -24.828125 1.949219 -15.480469 C 1.949219 -6.136719 9.117188 0.917969 18.691406 0.917969 Z M 18.691406 -6.996094 C 13.875 -6.996094 10.4375 -10.4375 10.4375 -15.480469 C 10.4375 -20.472656 13.875 -23.96875 18.691406 -23.96875 C 23.511719 -23.96875 26.949219 -20.472656 26.949219 -15.480469 C 26.949219 -10.4375 23.511719 -6.996094 18.691406 -6.996094 Z M 18.691406 -6.996094 "/></g></g></g><g fill="rgb(9.408569%, 9.408569%, 9.408569%)" fill-opacity="1"><g transform="translate(242.242592, 60.226289)"><g><path d="M 32.398438 0 L 20.816406 -16.171875 L 31.308594 -30.964844 L 21.675781 -30.964844 L 12.386719 -17.203125 L 12.386719 -42.089844 L 4.015625 -42.089844 L 4.015625 0 L 12.386719 0 L 12.386719 -14.792969 L 22.25 0 Z M 32.398438 0 "/></g></g></g><g fill="rgb(9.408569%, 9.408569%, 9.408569%)" fill-opacity="1"><g transform="translate(274.406651, 60.226289)"><g><path d="M 29.242188 -30.964844 L 28.382812 -28.039062 C 25.6875 -30.390625 22.191406 -31.824219 18.175781 -31.824219 C 8.886719 -31.824219 1.949219 -24.828125 1.949219 -15.480469 C 1.949219 -6.136719 8.886719 0.917969 18.175781 0.917969 C 22.132812 0.917969 25.574219 -0.457031 28.210938 -2.808594 L 28.957031 0 L 35.496094 0 L 35.496094 -30.964844 Z M 18.867188 -6.996094 C 13.992188 -6.996094 10.4375 -10.664062 10.4375 -15.480469 C 10.4375 -20.355469 13.992188 -23.96875 18.867188 -23.96875 C 23.738281 -23.96875 27.292969 -20.355469 27.292969 -15.480469 C 27.292969 -10.609375 23.738281 -6.996094 18.867188 -6.996094 Z M 18.867188 -6.996094 "/></g></g></g></svg>